<?xml version="1.0" standalone="no"?>
<!DOCTYPE svg PUBLIC "-//W3C//DTD SVG 20010904//EN"
 "http://www.w3.org/TR/2001/REC-SVG-20010904/DTD/svg10.dtd">
<svg version="1.0" xmlns="http://www.w3.org/2000/svg"
 width="574.000000pt" height="574.000000pt" viewBox="0 0 574.000000 574.000000"
 preserveAspectRatio="xMidYMid meet">
<metadata>
Created by potrace 1.14, written by Peter Selinger 2001-2017
</metadata>
<g transform="translate(0.000000,574.000000) scale(0.100000,-0.100000)"
fill="#000000" stroke="none">
<path d="M2649 4196 c-126 -47 -170 -92 -274 -275 l-80 -141 -250 0 c-274 0
-280 -1 -310 -60 -19 -38 -19 -75 1 -109 34 -58 0 -56 759 -62 l700 -5 96 -26
c172 -46 343 -134 443 -226 31 -30 265 -299 401 -463 161 -194 189 -253 182
-375 -5 -90 -42 -163 -107 -210 -92 -67 -30 -64 -1354 -64 -1296 0 -1232 3
-1270 -52 -21 -29 -20 -97 0 -127 34 -48 61 -51 397 -51 l313 0 81 -142 c105
-184 159 -236 282 -272 47 -14 134 -16 650 -16 631 0 646 1 737 48 67 34 100
68 153 155 146 243 576 998 588 1032 18 51 19 169 1 220 -8 22 -75 146 -150
275 -74 129 -211 366 -302 525 -92 160 -183 306 -203 327 -19 20 -65 51 -101
70 l-66 33 -640 2 c-511 1 -648 -1 -677 -11z"/>
<path d="M988 3332 c-16 -9 -35 -32 -44 -51 -15 -31 -15 -40 -3 -75 25 -71 51
-81 204 -81 l134 0 30 29 c54 51 50 131 -7 176 -22 18 -40 20 -156 20 -106 0
-136 -4 -158 -18z"/>
<path d="M1494 3316 c-39 -39 -45 -89 -18 -135 31 -52 45 -56 246 -59 l187 -4
-39 -73 c-66 -126 -65 -251 5 -367 19 -33 35 -61 35 -63 0 -2 -147 -6 -326 -7
l-326 -3 -29 -33 c-34 -37 -40 -102 -13 -140 38 -55 -42 -52 1449 -52 1508 0
1423 -3 1446 58 23 61 -2 106 -181 320 l-85 102 -387 0 c-416 0 -428 1 -454
51 -23 45 -18 87 15 120 l29 29 306 0 c171 0 306 4 306 9 0 16 -126 125 -184
160 -32 19 -93 47 -136 62 -165 59 -170 59 -1027 59 l-785 0 -34 -34z m1250
-267 c33 -15 59 -71 51 -108 -3 -16 -17 -39 -31 -52 -24 -23 -34 -24 -176 -27
-167 -4 -200 3 -223 49 -24 45 -19 87 14 120 l29 29 156 0 c95 0 165 -4 180
-11z"/>
</g>
</svg>
