<?xml version="1.0" encoding="UTF-8"?>
<svg id="Layer_2" data-name="Layer 2" xmlns="http://www.w3.org/2000/svg" xmlns:xlink="http://www.w3.org/1999/xlink" width="32" height="46" viewBox="0 0 35.03 48.24">
    <defs>
        <linearGradient id="linear-gradient" x1="-9.03" y1="23.21" x2="45.18" y2="23.21" gradientUnits="userSpaceOnUse">
            <stop offset="0" stop-color="#d4145a"/>
            <stop offset="1" stop-color="#f7931e"/>
        </linearGradient>
        <linearGradient id="linear-gradient-2" x1="0" x2="35.03" xlink:href="#linear-gradient"/>
    </defs>
    <path d="M17.5,2.83c-8.03,0-14.53,6.49-14.53,14.49,0,6.01,3.61,11.36,6.24,15.27l.52,.79c2.56,3.82,6.02,8.1,7.77,10.22,1.83-2.12,5.22-6.4,7.77-10.22l.54-.79c2.63-3.85,6.23-9.2,6.23-15.27h0c0-8.01-6.51-14.49-14.54-14.49Zm0,21.14c-4.7,0-8.52-3.8-8.52-8.49s3.81-8.49,8.52-8.49,8.52,3.8,8.52,8.49-3.81,8.49-8.52,8.49Z" style="fill: url(#linear-gradient);"/>
    <path d="M17.5,2.83c-8.03,0-14.53,6.49-14.53,14.49,0,6.01,3.61,11.36,6.24,15.27l.52,.79c2.56,3.82,6.02,8.1,7.77,10.22,1.83-2.12,5.22-6.4,7.77-10.22l.54-.79c2.63-3.85,6.23-9.2,6.23-15.27h0c0-8.01-6.51-14.49-14.54-14.49Zm0,21.14c-4.7,0-8.52-3.8-8.52-8.49s3.81-8.49,8.52-8.49,8.52,3.8,8.52,8.49-3.81,8.49-8.52,8.49Z" style="fill: url(#linear-gradient-2);"/>
    <path d="M17.51,6.99c-4.7,0-8.52,3.8-8.52,8.49s3.81,8.49,8.52,8.49,8.52-3.8,8.52-8.49-3.81-8.49-8.52-8.49Zm0,14h0c-3.06,.01-5.54-2.46-5.54-5.51s2.48-5.53,5.54-5.53,5.54,2.47,5.54,5.53c0,3.05-2.49,5.51-5.54,5.51Z"/>
    <path d="M17.51,0C7.87,0,.05,7.77,0,17.38c0,6.92,3.89,12.71,6.75,16.93l.52,.77c2.84,4.1,5.88,8.06,9.12,11.85l1.13,1.32,1.13-1.32c3.24-3.79,6.29-7.75,9.12-11.85l.52-.79c2.84-4.22,6.73-10,6.73-16.92C34.98,7.76,27.15,0,17.51,0Zm8.31,32.59l-.54,.79c-2.56,3.82-5.94,8.1-7.77,10.22-1.75-2.12-5.22-6.4-7.77-10.22l-.52-.79c-2.63-3.91-6.24-9.26-6.24-15.27,0-8,6.5-14.49,14.53-14.49,8.03,0,14.54,6.48,14.54,14.48h0c0,6.08-3.6,11.43-6.23,15.28Z"/>
</svg>
