<svg width="27" height="27" viewBox="0 0 27 27" fill="none" xmlns="http://www.w3.org/2000/svg">
<path d="M23.0434 3.95656C20.5462 1.35135 17.0906 -0.0524925 13.5 0.00150147C9.9094 -0.0524925 6.46728 1.35135 3.97006 3.95656C1.35135 6.45378 -0.0524925 9.9094 0.00150147 13.5C-0.0524925 17.0906 1.35135 20.5327 3.95656 23.0299C6.45378 25.6486 9.9094 27.0525 13.5 26.9985C17.0906 27.0525 20.5327 25.6486 23.0299 23.0434C25.6486 20.5462 27.0525 17.0906 26.9985 13.5C27.0525 9.9094 25.6486 6.45378 23.0434 3.95656ZM20.2493 13.5V21.5991H15.5248V14.8499H11.4752V21.5991H6.75075V13.5H4.05105L13.5 4.05105L23.6239 13.5H20.2493Z" fill="#D649AE"/>
</svg>
